<?xml version="1.0" standalone="no"?>
<!DOCTYPE svg PUBLIC "-//W3C//DTD SVG 20010904//EN"
 "http://www.w3.org/TR/2001/REC-SVG-20010904/DTD/svg10.dtd">
<svg version="1.0" xmlns="http://www.w3.org/2000/svg"
 width="1080.000000pt" height="716.000000pt" viewBox="0 0 1080.000000 716.000000"
 preserveAspectRatio="xMidYMid meet">

<g transform="translate(0.000000,716.000000) scale(0.100000,-0.100000)"
fill="#000000" stroke="none">
<path d="M2 6047 l3 -1112 22 -24 c18 -20 22 -39 27 -139 3 -65 11 -146 17
-182 6 -36 12 -87 13 -115 7 -144 30 -253 47 -222 5 8 3 28 -3 45 -12 30 -6
53 10 38 9 -9 8 15 32 -1391 6 -324 15 -814 20 -1088 6 -328 6 -505 0 -517 -6
-10 -9 -31 -9 -47 l1 -28 8 30 c9 34 9 22 14 -285 1 -102 0 -171 -4 -155 -5
28 -6 26 -18 -23 -6 -30 -12 -62 -12 -73 0 -11 -7 -22 -16 -26 -13 -5 -14 -26
-10 -152 2 -82 0 -153 -5 -163 -6 -12 -6 -18 0 -18 6 0 10 -45 9 -117 -1 -65
-5 -102 -8 -83 l-6 35 -5 -30 c-6 -28 -6 -69 -1 -167 l2 -38 2251 0 2252 0 -7
313 c-3 171 -9 533 -13 802 -4 270 -8 482 -11 472 -2 -9 -8 -15 -13 -11 -5 3
-28 -4 -50 -15 -47 -25 -59 -26 -59 -6 0 19 -8 19 -51 1 -19 -7 -65 -17 -104
-21 l-70 -7 22 21 c12 12 30 21 40 22 10 0 4 5 -13 10 -24 7 -50 2 -120 -20
l-89 -29 63 -1 c66 -1 79 -17 16 -19 -20 -1 -40 -4 -43 -8 -3 -3 22 -4 57 -2
34 2 62 1 62 -4 0 -4 -12 -9 -27 -9 -66 -3 -79 -5 -91 -13 -8 -5 -19 -1 -28
10 -11 14 -17 15 -20 7 -8 -18 -34 -16 -34 2 0 8 -7 15 -16 15 -27 0 -13 -43
16 -46 85 -9 137 -14 152 -14 15 0 16 -4 6 -25 l-11 -25 -106 5 c-58 4 -128
11 -154 16 -26 5 -66 9 -87 9 -22 0 -59 4 -82 10 -24 5 -119 25 -213 45 -162
35 -275 74 -275 97 0 7 14 8 38 5 42 -7 85 19 81 50 -3 28 13 123 21 123 4 0
29 -12 56 -26 68 -37 102 -43 187 -34 102 12 339 29 412 31 81 2 105 8 98 25
-3 8 1 14 8 14 14 0 239 549 239 581 0 12 -36 25 -150 54 -82 20 -155 35 -162
32 -7 -2 -31 -50 -53 -106 -22 -55 -43 -101 -47 -101 -5 0 -8 -9 -8 -21 0 -16
-4 -19 -20 -14 -11 4 -20 2 -20 -4 0 -6 7 -11 16 -11 8 0 12 -5 9 -10 -4 -6
-16 -8 -28 -5 -12 2 -16 2 -9 -1 10 -5 10 -9 1 -20 -6 -8 -8 -25 -5 -39 4 -14
2 -25 -3 -25 -14 0 -24 52 -11 60 9 6 9 9 1 14 -6 4 -9 11 -6 16 3 4 -2 13
-10 20 -10 9 -15 9 -15 1 0 -23 -20 -10 -26 16 -4 16 -16 36 -28 45 -21 17
-21 17 10 9 17 -5 41 -14 52 -20 11 -6 23 -11 25 -11 7 0 21 81 18 99 -4 23 9
62 19 56 6 -3 10 -2 10 4 0 5 -4 13 -10 16 -5 3 -10 2 -10 -3 0 -4 -10 -19
-21 -31 -12 -13 -18 -26 -13 -30 15 -10 15 -31 0 -31 -8 0 -18 9 -21 20 -3 11
-11 20 -17 20 -7 0 -6 -5 1 -14 15 -18 2 -27 -29 -21 -28 5 -39 15 -18 15 33
0 30 40 -4 53 -13 5 -18 -1 -21 -26 -4 -32 -4 -32 -5 4 -2 43 -13 49 -83 49
-48 0 -129 -25 -129 -40 0 -4 -10 -12 -22 -18 -19 -9 -10 -11 49 -11 39 -1 78
-4 87 -7 21 -8 8 -34 -16 -34 -17 0 -18 -3 -8 -15 7 -8 21 -15 32 -15 28 0 89
-30 82 -41 -3 -5 -1 -9 5 -9 5 0 11 5 13 12 3 8 9 8 22 1 16 -9 14 -11 -15
-17 -24 -4 -37 -2 -44 7 -8 11 -27 12 -92 5 -46 -5 -105 -5 -137 0 -31 5 -56
6 -56 1 0 -4 5 -9 11 -11 6 -2 17 -48 24 -103 8 -55 19 -114 24 -132 5 -17 7
-34 3 -37 -3 -3 -34 -6 -69 -6 l-63 0 0 88 c0 49 -3 91 -6 94 -3 3 -14 4 -25
1 -19 -5 -27 -43 -9 -43 28 0 -10 -81 -44 -96 -15 -6 -20 -17 -18 -34 3 -28
-38 -73 -96 -106 -32 -18 -34 -18 -43 -1 -6 9 -15 17 -21 17 -6 0 -19 6 -27
14 -21 17 -79 28 -86 16 -8 -13 -55 -13 -55 1 0 5 -5 7 -11 3 -8 -5 -10 1 -7
20 5 26 5 26 -16 9 -11 -10 -25 -24 -29 -30 -12 -19 -27 -16 -20 4 5 12 3 14
-7 8 -8 -5 0 9 16 31 16 21 21 33 12 26 -9 -8 -21 -11 -27 -8 -5 3 -22 -9 -39
-28 -16 -19 -40 -40 -53 -47 -18 -9 -15 -2 14 30 41 45 43 60 7 41 -28 -15
-36 -7 -14 14 9 9 13 20 10 24 -4 4 -25 -14 -46 -38 -22 -25 -40 -40 -40 -34
0 6 7 17 15 24 8 7 12 16 9 21 -3 5 0 9 6 9 6 0 9 4 6 9 -7 10 30 27 76 36 37
7 104 54 78 54 -8 1 -49 -8 -90 -19 -41 -11 -104 -20 -139 -20 l-64 0 36 37
c20 20 40 33 43 30 4 -4 -4 -15 -17 -26 -13 -11 -21 -22 -17 -26 9 -9 48 17
48 32 0 7 8 13 17 13 13 0 14 -3 5 -12 -27 -27 -10 -29 24 -3 21 16 39 24 43
18 12 -19 74 2 118 40 35 31 18 37 -39 15 -41 -15 -70 -19 -137 -16 l-86 4
-37 -38 c-35 -37 -63 -54 -38 -23 10 13 9 15 -8 15 -12 0 -23 -4 -26 -9 -3 -5
-17 -8 -31 -9 l-26 0 22 24 c12 13 25 24 28 24 3 0 0 -5 -7 -12 -18 -18 -15
-33 3 -18 9 7 13 20 10 28 -3 8 2 24 12 36 10 12 11 16 4 9 -7 -6 -19 -9 -27
-6 -7 2 -19 -5 -26 -16 -16 -26 -28 -27 -28 -3 0 24 -31 52 -56 51 -15 -1 -14
-3 6 -9 23 -7 23 -8 3 -9 -12 -1 -24 -7 -26 -13 -3 -7 -6 1 -6 17 -1 17 -6 36
-13 43 -17 17 -39 15 -32 -3 4 -8 12 -15 20 -15 8 0 14 -4 14 -10 0 -5 -6 -10
-12 -10 -35 1 -55 15 -73 53 -28 58 -104 133 -149 146 -21 5 -46 21 -57 36
-12 14 -38 35 -60 45 -21 11 -39 24 -39 29 0 24 34 71 51 71 14 0 19 7 19 26
0 19 7 28 30 37 22 8 31 20 36 44 5 25 12 33 34 38 24 5 30 13 35 46 4 21 10
39 14 39 10 0 51 -48 51 -60 0 -6 5 -10 10 -10 6 0 10 11 10 24 0 17 7 25 24
28 14 3 30 0 35 -5 12 -12 14 -47 5 -72 -5 -13 -8 -14 -15 -3 -6 10 -11 10
-21 0 -9 -9 -9 -12 1 -12 7 0 11 -6 7 -15 -3 -8 4 -21 17 -30 12 -8 16 -15 9
-15 -9 0 -7 -8 5 -26 l17 -27 -24 13 c-14 7 -37 22 -52 33 -15 12 -31 17 -35
13 -8 -8 35 -45 53 -46 6 0 23 -9 38 -21 14 -11 41 -25 60 -30 20 -6 36 -17
39 -29 3 -13 13 -20 29 -19 l23 0 -25 11 c-21 9 -22 12 -7 15 9 3 17 12 17 21
0 12 8 7 29 -15 21 -23 39 -33 66 -35 20 -1 41 -8 47 -15 6 -7 15 -13 20 -13
7 0 6 5 -1 13 -8 10 -7 14 2 14 6 0 22 3 35 7 16 5 22 3 22 -8 0 -8 -8 -17
-17 -19 -13 -3 -11 -5 7 -7 14 -1 28 -2 33 -1 4 0 7 -4 7 -9 0 -6 -5 -10 -12
-10 -16 0 23 -29 40 -30 6 0 12 5 12 11 0 5 -4 8 -9 4 -5 -3 -12 -1 -15 3 -3
5 7 15 22 23 15 7 29 14 31 16 7 4 -28 33 -41 33 -26 1 -46 24 -37 46 9 25 45
34 133 34 56 0 65 3 91 30 19 20 32 27 39 20 7 -7 3 -16 -10 -29 -30 -31 -46
-52 -43 -56 2 -2 20 -6 41 -10 32 -6 37 -4 44 17 12 35 4 70 -21 93 -12 12
-24 26 -26 31 -2 5 -44 7 -99 4 -108 -7 -126 -4 -109 16 8 10 5 49 -11 151
-31 201 -26 184 -58 172 -33 -13 -225 -14 -248 -1 -15 9 -14 12 12 25 32 17
104 80 104 90 0 4 -12 6 -27 5 -108 -7 -136 0 -207 55 -102 78 -159 117 -173
117 -19 0 -40 -49 -47 -111 -5 -39 -11 -56 -22 -56 -16 0 -19 36 -5 85 15 51
-16 41 -40 -14 -12 -25 -23 -43 -26 -41 -9 10 30 72 76 122 51 56 61 58 226
59 75 1 85 -2 137 -33 31 -19 74 -51 95 -71 57 -56 71 -60 192 -60 61 0 111
-3 111 -6 0 -3 -13 -25 -30 -49 -16 -24 -30 -46 -30 -49 0 -3 55 -3 123 1
l122 6 23 -134 c23 -137 34 -159 75 -159 10 0 15 5 12 10 -10 16 16 41 36 35
9 -3 20 -1 24 5 8 13 45 13 45 0 0 -5 -16 -16 -35 -24 -35 -15 -53 -50 -41
-81 10 -26 25 -16 36 24 13 50 24 58 88 62 40 3 53 0 57 -11 11 -37 -18 -88
-34 -61 -7 11 -9 11 -14 0 -4 -10 -6 -9 -6 4 -1 20 -12 22 -29 5 -26 -26 -13
-38 38 -38 28 0 50 -4 50 -9 0 -5 10 -12 23 -14 12 -2 5 -5 -18 -6 l-41 -1 -2
-49 c-1 -34 3 -53 14 -61 10 -9 68 -14 197 -17 311 -6 541 -38 705 -99 24 -9
45 -14 48 -12 2 3 -3 25 -11 48 -9 24 -13 50 -10 58 3 8 0 10 -7 6 -8 -5 -9 1
-4 20 4 15 3 25 -2 22 -10 -6 -46 63 -38 72 3 3 77 -5 163 -17 87 -11 161 -21
166 -21 9 0 9 298 1 392 l-7 66 -56 -4 c-56 -4 -56 -3 -14 7 23 5 47 17 54 25
11 13 5 15 -42 12 l-54 -3 -5 65 c-4 40 -2 68 5 72 16 12 25 9 25 -7 0 -8 5
-15 10 -15 6 0 10 5 10 10 0 6 16 10 35 10 29 0 35 4 35 21 l0 21 -302 -3
c-167 -2 -330 0 -363 4 -45 6 -56 5 -43 -3 10 -6 41 -14 68 -17 54 -6 68 -16
51 -37 -6 -7 -16 -48 -22 -92 -13 -89 -28 -129 -29 -75 l0 33 -210 -7 c-199
-7 -210 -6 -217 11 -4 11 -12 24 -19 29 -10 8 -14 262 -19 1185 -3 646 -8
1186 -10 1200 -2 14 -2 19 1 13 3 -7 12 -13 20 -13 9 0 13 3 11 8 -6 8 12 10
131 13 49 1 103 -2 121 -6 24 -5 31 -4 27 4 -4 6 -32 11 -62 11 -30 0 -54 5
-54 10 0 14 86 12 335 -5 194 -13 311 -17 275 -9 -8 2 -154 13 -325 24 -211
15 -332 27 -380 40 -57 15 -79 17 -118 8 -40 -8 -51 -7 -65 5 -22 20 -166 47
-247 47 -44 0 -66 5 -75 15 -8 10 -17 12 -24 6 -7 -6 -55 -7 -126 -1 -62 4
-119 6 -126 3 -6 -2 -15 0 -19 6 -3 6 -21 11 -40 11 -36 0 -50 13 -48 45 1 14
0 15 -3 3 -8 -27 -34 -30 -43 -5 -5 12 -7 25 -4 30 2 4 -8 7 -24 8 -45 0 -108
5 -271 19 -126 11 -159 11 -189 1 -33 -12 -37 -12 -52 8 -12 15 -33 23 -79 29
-96 13 -202 1 -202 -24 0 -22 -38 -36 -96 -35 -68 0 -164 28 -164 46 0 19 -52
45 -89 45 -17 0 -93 9 -168 19 -76 11 -190 22 -253 26 -63 3 -146 12 -185 20
-93 18 -282 21 -375 7 -45 -7 -93 -9 -120 -4 l-45 8 -2 194 c-2 107 1 190 5
183 8 -12 18 -12 147 2 39 5 102 8 140 8 39 0 78 3 87 8 10 6 19 5 23 -1 3 -5
19 -10 36 -10 28 0 34 10 30 47 -1 6 3 14 9 18 13 8 -17 55 -36 55 -9 0 -14
12 -14 35 0 28 4 35 20 35 11 0 20 4 20 9 0 5 15 11 33 15 17 3 65 20 105 38
l72 32 0 40 c0 28 3 37 9 27 8 -12 12 -12 26 3 18 17 101 21 111 4 3 -4 18 -8
34 -8 32 0 60 -23 60 -49 0 -12 14 -24 40 -34 35 -14 43 -24 39 -53 -1 -12 26
-24 54 -24 16 0 37 -5 47 -10 11 -6 39 -12 62 -15 98 -11 132 -13 110 -9 -12
3 -20 10 -17 15 10 15 30 10 54 -12 17 -16 30 -20 56 -15 23 5 38 2 48 -9 18
-17 37 -20 37 -5 0 6 18 10 40 10 22 0 40 5 40 10 0 6 33 10 80 10 52 0 80 4
80 11 0 7 9 9 23 5 18 -4 29 1 46 24 l22 30 -26 10 c-15 6 -31 10 -36 10 -5 0
-9 7 -9 15 0 8 9 15 20 15 11 0 20 5 20 10 0 6 -9 10 -19 10 -11 0 -22 6 -25
13 -5 10 -7 10 -12 0 -7 -15 -84 -18 -84 -3 0 6 -9 10 -20 10 -11 0 -20 4 -20
10 0 5 -12 13 -27 16 -16 4 -31 11 -34 16 -4 6 -19 3 -37 -6 -17 -9 -38 -13
-46 -10 -25 9 -7 26 20 20 17 -5 24 -2 24 8 0 16 -21 26 -56 26 -21 0 -24 4
-24 40 0 30 -4 40 -16 40 -23 0 -44 25 -44 54 0 14 -4 26 -10 26 -5 0 -10 7
-10 15 0 8 -4 15 -10 15 -5 0 -10 -7 -10 -15 0 -8 -9 -15 -20 -15 -13 0 -20 7
-20 20 0 13 -7 20 -20 20 -11 0 -20 7 -20 15 0 12 -10 14 -53 9 -49 -6 -54 -4
-64 17 -7 13 -12 18 -12 12 -1 -20 -19 -15 -26 8 -6 16 -12 19 -36 14 -42 -9
-104 3 -130 26 -18 16 -45 22 -75 18 -3 0 -15 6 -27 14 -21 13 -45 20 -124 34
-20 3 -33 11 -33 20 0 12 -3 13 -13 4 -9 -7 -24 -8 -48 -1 -20 6 -211 10 -457
10 l-423 0 3 -1113z m3483 -457 c3 -5 -3 -10 -14 -10 -12 0 -21 5 -21 10 0 6
6 10 14 10 8 0 18 -4 21 -10z m-3070 -1310 c4 -6 -10 -10 -35 -10 -25 0 -39 4
-35 10 3 6 19 10 35 10 16 0 32 -4 35 -10z m1410 -4 c11 -2 -56 -4 -150 -4
-93 -1 -165 2 -158 6 11 7 262 5 308 -2z m332 -2 c-3 -3 -12 -4 -19 -1 -8 3
-5 6 6 6 11 1 17 -2 13 -5z m61 -1 c-10 -2 -26 -2 -35 0 -10 3 -2 5 17 5 19 0
27 -2 18 -5z m901 -9 c2 -2 -154 -4 -347 -4 -248 0 -352 3 -352 11 0 8 99 9
348 4 191 -4 349 -9 351 -11z m-1149 -474 c0 -5 -7 -10 -15 -10 -8 0 -15 -4
-15 -10 0 -14 16 -12 29 3 7 10 39 14 103 15 51 0 121 2 156 5 63 4 63 4 60
-22 l-3 -26 -178 -3 c-152 -2 -178 0 -183 13 -9 23 3 45 26 45 11 0 20 -4 20
-10z m501 -19 c9 -24 12 -23 -103 -26 -67 -2 -68 -2 -68 24 l0 26 82 -1 c74
-1 82 -3 89 -23z m69 -2 c0 -13 -7 -19 -24 -19 -28 0 -39 11 -31 33 9 21 55 9
55 -14z m266 7 c23 -23 17 -26 -49 -26 -35 0 -68 -5 -75 -12 -7 -7 -16 -8 -24
-2 -19 14 -75 17 -83 5 -12 -21 -25 -11 -25 19 l0 30 121 0 c91 0 124 -3 135
-14z m1278 -508 c5 -10 7 -10 12 0 3 6 17 12 30 12 14 0 23 -4 19 -9 -3 -6 -7
-60 -9 -122 -3 -61 -9 -116 -15 -122 -13 -13 -13 -9 -11 56 l2 48 -66 -6 -66
-6 0 33 c0 49 19 106 38 117 24 14 59 13 66 -1z m212 -18 c8 0 14 7 14 15 0
17 65 22 74 6 3 -5 14 -7 25 -4 23 6 31 -21 30 -102 -1 -33 -3 -52 -6 -42 -4
14 -11 16 -39 11 -32 -6 -34 -5 -34 22 l0 29 -25 -28 c-24 -25 -31 -27 -105
-27 l-80 0 0 44 c0 63 7 77 36 70 18 -5 24 -2 24 9 0 20 63 28 68 10 2 -7 10
-13 18 -13z m-3256 -145 c0 -8 -5 -24 -12 -34 -16 -26 13 -55 45 -47 13 3 40
1 61 -5 27 -7 41 -7 51 1 11 9 23 9 51 0 l37 -13 -24 -13 c-13 -7 -38 -13 -55
-14 -16 0 -39 -7 -50 -15 -22 -17 -38 -20 -29 -5 3 6 2 10 -4 10 -11 0 -53
-75 -46 -82 3 -2 -14 -16 -38 -31 -23 -15 -57 -43 -76 -62 -38 -40 -51 -44
-51 -15 0 19 32 85 51 105 5 5 9 18 9 30 0 12 4 25 9 31 17 18 40 117 31 134
-6 11 -5 21 2 28 17 17 38 15 38 -3z m3400 -34 c0 -5 -11 -11 -25 -13 -14 -3
-25 -2 -25 3 0 4 10 10 23 12 12 2 23 5 25 6 1 0 2 -3 2 -8z m-2419 -28 c-8
-15 -10 -15 -11 -2 0 17 10 32 18 25 2 -3 -1 -13 -7 -23z m1278 -22 c-7 -23
-16 -41 -20 -41 -9 0 -6 14 12 57 18 44 23 34 8 -16z m1026 29 c-3 -5 -14 -10
-23 -10 -15 0 -15 2 -2 10 20 13 33 13 25 0z m52 4 c-3 -3 -12 -4 -19 -1 -8 3
-5 6 6 6 11 1 17 -2 13 -5z m-1127 -59 c0 -5 -5 -3 -10 5 -5 8 -10 20 -10 25
0 6 5 3 10 -5 5 -8 10 -19 10 -25z m674 -79 c-20 -125 -30 -135 -14 -14 14
105 20 132 26 125 3 -3 -2 -53 -12 -111z m192 12 c-12 -132 -18 -168 -29 -168
-6 0 -7 31 -3 88 9 114 16 152 28 152 7 0 8 -26 4 -72z m-701 22 c-3 -5 -23
-10 -43 -10 -28 0 -33 3 -22 10 20 13 73 13 65 0z m118 3 c-7 -2 -19 -2 -25 0
-7 3 -2 5 12 5 14 0 19 -2 13 -5z m-2433 -38 c-7 -9 -15 -13 -17 -11 -6 6 20
36 26 30 2 -2 -2 -10 -9 -19z m1140 -5 c-18 -16 -34 -30 -36 -30 -8 0 11 36
25 47 33 26 42 12 11 -17z m225 11 c3 -5 1 -12 -5 -16 -5 -3 -10 1 -10 9 0 18
6 21 15 7z m845 -6 c20 -24 6 -28 -15 -5 -10 11 -13 20 -8 20 6 0 16 -7 23
-15z m198 8 c-10 -2 -28 -2 -40 0 -13 2 -5 4 17 4 22 1 32 -1 23 -4z m-112
-28 c-9 -9 -16 -13 -16 -8 0 12 22 34 28 28 2 -2 -3 -11 -12 -20z m-1986 5 c0
-5 -9 -10 -20 -10 -11 0 -20 5 -20 10 0 6 9 10 20 10 11 0 20 -4 20 -10z m60
-10 c0 -15 -28 -19 -39 -6 -6 7 -8 15 -5 18 7 8 44 -2 44 -12z m1683 3 c-7 -2
-19 -2 -25 0 -7 3 -2 5 12 5 14 0 19 -2 13 -5z m-774 -37 c9 -16 10 -29 3 -42
-10 -18 -9 -20 -28 49 -8 25 11 21 25 -7z m138 2 c-3 -8 -6 -5 -6 6 -1 11 2
17 5 13 3 -3 4 -12 1 -19z m-1151 3 c-4 -5 0 -11 6 -14 10 -3 8 -9 -4 -23 -17
-18 -18 -17 -18 14 0 18 5 32 11 32 5 0 8 -4 5 -9z m944 -52 c0 -6 7 -9 15 -5
8 3 15 1 15 -4 0 -6 -16 -10 -36 -10 -31 0 -35 2 -24 15 15 18 30 20 30 4z
m-1315 -8 c3 -5 1 -12 -5 -16 -5 -3 -10 1 -10 9 0 18 6 21 15 7z m4 -123 c1
-50 -11 -62 -29 -28 -7 14 -7 20 0 20 5 0 10 24 11 53 1 41 3 47 9 27 4 -14 8
-46 9 -72z m-69 67 c-7 -9 -15 -13 -19 -10 -3 3 1 10 9 15 21 14 24 12 10 -5z
m431 -6 c11 -5 17 -14 14 -19 -6 -10 -45 9 -45 22 0 11 8 10 31 -3z m-24 -96
c-3 -10 -5 -4 -5 12 0 17 2 24 5 18 2 -7 2 -21 0 -30z m1043 7 c0 -5 -2 -10
-4 -10 -3 0 -8 5 -11 10 -3 6 -1 10 4 10 6 0 11 -4 11 -10z m1387 -264 c2 -2
5 -41 4 -57 0 -9 -8 -20 -17 -23 -12 -5 -15 -2 -10 9 4 11 -3 19 -22 27 -22 9
-24 12 -9 15 13 3 16 10 11 25 -5 17 -3 19 18 13 12 -4 24 -8 25 -9z m397 -10
c105 -30 162 -45 198 -51 34 -5 36 -7 28 -33 -15 -47 -151 -377 -159 -385 -7
-7 -275 83 -288 96 -4 5 132 339 150 368 14 23 9 22 71 5z m-319 -16 c3 -5 1
-10 -4 -10 -6 0 -11 5 -11 10 0 6 2 10 4 10 3 0 8 -4 11 -10z m1 -165 c-3 -8
0 -15 7 -16 9 0 9 -2 -1 -6 -6 -2 -10 -9 -6 -14 3 -5 1 -9 -4 -9 -5 0 -9 14
-8 30 0 17 5 30 9 30 5 0 7 -7 3 -15z m-46 -19 c0 -3 -4 -8 -10 -11 -5 -3 -10
-1 -10 4 0 6 5 11 10 11 6 0 10 -2 10 -4z m-1415 -16 c3 -5 2 -10 -4 -10 -5 0
-13 5 -16 10 -3 6 -2 10 4 10 5 0 13 -4 16 -10z m1515 0 c0 -5 -7 -7 -15 -4
-8 4 -15 8 -15 10 0 2 7 4 15 4 8 0 15 -4 15 -10z m-1 -32 c10 -28 9 -30 -13
-22 -14 5 -15 9 -4 15 10 7 10 9 1 9 -7 0 -13 5 -13 10 0 19 21 10 29 -12z
m-1219 -37 c0 -5 -7 -12 -16 -15 -14 -5 -15 -4 -4 9 14 17 20 19 20 6z m1104
-12 c-3 -5 4 -9 15 -9 10 0 21 -5 23 -11 2 -6 23 -12 46 -13 23 0 42 -4 42 -9
0 -4 4 -5 10 -2 5 3 -1 -22 -14 -57 -22 -58 -22 -64 -8 -78 24 -22 197 -90
230 -90 27 0 60 -15 52 -24 -3 -2 -46 -7 -95 -11 -50 -4 -103 -11 -120 -16
-16 -5 -106 -16 -198 -24 l-168 -13 -89 35 -90 36 0 43 c0 50 -2 49 129 59 46
3 89 9 95 12 6 4 27 6 47 4 l36 -2 7 58 c10 84 26 132 42 126 8 -3 11 -9 8
-14z m-1044 -89 c0 -5 -8 -10 -17 -10 -15 0 -16 2 -3 10 19 12 20 12 20 0z
m790 -70 c0 -5 -7 -10 -15 -10 -8 0 -15 5 -15 10 0 6 7 10 15 10 8 0 15 -4 15
-10z m-2130 -130 c0 -5 -5 -10 -11 -10 -5 0 -7 5 -4 10 3 6 8 10 11 10 2 0 4
-4 4 -10z m3158 -266 c12 -8 27 -12 32 -9 7 4 10 -34 8 -117 l-3 -123 -48 2
c-60 4 -117 27 -117 49 0 17 27 16 100 -2 47 -12 6 15 -56 37 -68 25 -76 26
-164 28 -141 3 -111 44 77 107 70 23 133 43 138 43 6 1 21 -6 33 -15z m-2733
-54 c-3 -5 -12 -10 -18 -10 -7 0 -6 4 3 10 19 12 23 12 15 0z m45 -214 c0 -3
-4 -8 -10 -11 -5 -3 -10 -1 -10 4 0 6 5 11 10 11 6 0 10 -2 10 -4z m2698 -24
c6 -20 -56 -15 -67 6 -9 17 -7 18 26 13 20 -3 38 -12 41 -19z m-1863 -198
c-26 -20 -55 -36 -55 -30 0 5 63 46 70 46 3 -1 -4 -8 -15 -16z m944 -141 c-13
-36 -95 -151 -153 -218 -56 -63 -133 -110 -196 -120 l-35 -5 33 15 c18 9 43
25 55 36 12 11 46 37 76 57 56 38 128 129 184 233 21 37 31 48 37 39 5 -7 4
-24 -1 -37z m-814 -59 c-11 -9 -38 -24 -61 -34 -22 -10 -48 -25 -58 -35 -9
-10 -20 -15 -23 -11 -10 10 7 23 78 61 67 36 98 45 64 19z m-645 -4 c0 -5 -7
-10 -16 -10 -8 0 -12 5 -9 10 3 6 10 10 16 10 5 0 9 -4 9 -10z"/>
<path d="M3837 1889 c7 -7 15 -10 18 -7 3 3 -2 9 -12 12 -14 6 -15 5 -6 -5z"/>
<path d="M3610 1880 c-35 -5 -34 -5 41 -38 74 -33 77 -33 97 -16 12 10 19 21
16 26 -3 4 -1 8 5 8 6 0 8 7 4 16 -4 12 -19 15 -67 12 -33 -1 -77 -5 -96 -8z"/>
<path d="M3880 1870 c8 -5 20 -10 25 -10 6 0 3 5 -5 10 -8 5 -19 10 -25 10 -5
0 -3 -5 5 -10z"/>
<path d="M3900 1851 l-25 -7 26 -7 c18 -4 29 -16 33 -33 7 -25 9 -26 53 -20
25 3 62 6 82 6 34 1 31 2 -34 29 -91 37 -105 40 -135 32z"/>
<path d="M4525 1480 c3 -5 8 -10 11 -10 2 0 4 5 4 10 0 6 -5 10 -11 10 -5 0
-7 -4 -4 -10z"/>
<path d="M5050 7153 c14 -2 210 -29 435 -59 226 -30 582 -79 793 -109 426 -61
402 -59 402 -45 0 5 -15 11 -32 14 -18 2 -105 14 -193 26 -88 12 -205 28 -260
36 -55 7 -172 23 -260 33 -142 18 -550 73 -740 100 -66 10 -199 13 -145 4z"/>
<path d="M5373 7153 c9 -2 25 -2 35 0 9 3 1 5 -18 5 -19 0 -27 -2 -17 -5z"/>
<path d="M8890 7150 c0 -5 25 -10 55 -10 30 0 55 5 55 10 0 6 -25 10 -55 10
-30 0 -55 -4 -55 -10z"/>
<path d="M9027 7149 c6 -6 24 -12 39 -12 16 -1 32 -6 37 -12 4 -7 10 -6 15 2
4 6 24 11 45 10 20 0 42 4 49 11 9 9 -11 12 -92 12 -76 0 -101 -3 -93 -11z"/>
<path d="M9320 7140 c0 -13 7 -20 20 -20 13 0 20 -7 20 -20 0 -11 7 -20 15
-20 11 0 15 -11 15 -39 0 -22 5 -41 13 -44 6 -2 8 -8 4 -13 -5 -5 -14 -1 -21
9 -18 23 -30 22 -23 -3 3 -11 1 -21 -4 -21 -31 -5 -109 -40 -109 -50 0 -5 -9
-9 -19 -9 -11 0 -23 -5 -27 -12 -5 -8 3 -9 32 -4 21 4 55 7 74 6 52 -2 170 20
170 32 0 6 16 8 38 6 33 -4 84 3 135 18 12 4 17 0 17 -15 0 -16 6 -21 25 -21
18 0 25 -5 25 -19 0 -11 6 -21 12 -23 15 -5 -13 -38 -31 -38 -6 0 -29 -11 -51
-25 -21 -14 -45 -23 -52 -20 -22 8 -35 -9 -41 -56 l-6 -46 44 5 c30 3 45 1 45
-7 0 -7 26 -11 75 -11 68 0 75 -2 75 -20 0 -11 -7 -20 -15 -20 -8 0 -15 -4
-15 -10 0 -5 9 -10 20 -10 11 0 20 5 20 10 0 6 6 5 14 -2 12 -11 12 -14 -5
-22 -26 -12 -24 -20 12 -57 25 -26 33 -29 41 -18 7 11 11 11 15 2 2 -7 13 -13
24 -13 12 0 19 -7 19 -20 0 -16 7 -20 31 -20 34 0 59 -19 59 -47 0 -14 2 -15
9 -4 8 12 12 12 25 -2 9 -8 16 -22 16 -30 0 -9 6 -18 13 -20 9 -4 9 -8 -2 -15
-23 -16 11 -42 53 -42 l36 0 -6 -40 c-4 -27 -3 -40 5 -40 6 0 11 5 11 10 0 6
5 10 10 10 17 0 60 -47 60 -65 0 -8 5 -15 10 -15 6 0 10 -15 11 -32 0 -28 2
-30 9 -13 13 30 12 1 -1 -32 -7 -15 -15 -44 -18 -63 -5 -29 -11 -36 -34 -38
-19 -2 -27 -9 -27 -23 0 -10 -4 -19 -10 -19 -5 0 -10 -9 -10 -20 0 -15 7 -20
25 -20 23 0 25 -4 25 -40 0 -22 5 -40 10 -40 6 0 10 5 10 10 0 6 5 10 10 10 6
0 10 -18 10 -40 0 -22 4 -40 9 -40 31 0 35 -115 38 -1205 1 -600 3 -1092 3
-1095 8 -74 -15 -1475 -26 -1602 -7 -74 -8 -77 -29 -72 -13 3 -26 1 -30 -6 -4
-6 -15 -8 -26 -5 -15 5 -19 1 -19 -14 0 -24 -18 -28 -26 -6 -8 19 -34 20 -34
2 0 -14 -40 -37 -65 -37 -8 0 -15 -4 -15 -10 0 -5 -16 -10 -36 -10 -19 0 -45
-5 -56 -11 -16 -8 -23 -8 -30 2 -7 11 -11 11 -15 2 -6 -15 -63 -18 -63 -3 0 6
5 10 10 10 6 0 10 5 10 10 0 6 -13 10 -30 10 -16 0 -30 -4 -30 -10 0 -5 -9
-10 -20 -10 -13 0 -20 7 -20 20 0 22 -20 26 -38 8 -9 -9 -21 -8 -53 2 -32 11
-45 11 -60 2 -13 -8 -19 -9 -19 -2 0 7 -24 10 -63 9 -63 -2 -107 13 -107 37 0
7 -13 22 -30 35 -16 13 -30 30 -30 37 0 6 -4 12 -10 12 -5 0 -10 5 -10 10 0 6
-9 21 -21 33 -67 72 -99 113 -99 128 0 10 -9 21 -20 24 -15 5 -20 15 -20 41 0
19 -4 34 -10 34 -5 0 -10 -4 -10 -10 0 -5 -4 -10 -10 -10 -5 0 -10 6 -10 14 0
8 -9 18 -21 21 -15 5 -19 13 -15 27 9 36 -5 78 -25 78 -11 0 -19 5 -19 10 0 6
-9 10 -20 10 -15 0 -20 7 -20 25 0 18 -5 25 -20 25 -15 0 -20 7 -20 24 0 16
-7 27 -20 31 -11 3 -20 15 -20 26 0 18 -39 42 -58 37 -4 -1 -24 14 -45 35 -36
36 -70 47 -81 28 -6 -10 -89 26 -94 40 -2 5 -10 9 -18 9 -9 0 -13 -4 -10 -9 3
-5 -22 -14 -55 -20 -52 -11 -59 -15 -54 -31 11 -36 -45 -53 -174 -54 -111 -1
-115 -2 -142 -29 -15 -15 -35 -27 -45 -27 -9 0 -25 -9 -35 -21 -14 -17 -21
-19 -39 -9 -18 10 -22 8 -31 -19 -12 -34 -29 -41 -29 -13 -1 16 -1 16 -11 -1
-6 -10 -8 -24 -5 -32 2 -7 -2 -16 -10 -19 -9 -3 -14 1 -14 13 0 11 -5 21 -11
23 -18 6 -15 89 6 230 l19 128 -24 32 c-24 32 -25 37 -30 298 -5 186 -7 63 -8
-410 -2 -657 -11 -1301 -18 -1309 -2 -2 -4 182 -4 410 0 427 -9 1065 -15 1085
-4 14 -140 60 -202 70 -24 4 -47 12 -51 18 -5 6 -12 650 -16 1466 -5 1307 -17
2014 -32 2029 -10 10 -304 10 -304 0 0 -5 -9 -9 -20 -9 -11 0 -20 5 -20 10 0
19 -29 10 -35 -10 -4 -13 -18 -23 -36 -27 -16 -3 -29 -9 -29 -14 0 -5 -18 -9
-40 -9 -29 0 -40 -4 -40 -15 0 -10 -11 -15 -35 -15 -19 0 -35 -4 -35 -9 0 -5
-20 -12 -45 -15 -25 -4 -45 -11 -45 -17 0 -5 -15 -9 -34 -9 -21 0 -42 -9 -60
-25 -17 -16 -44 -27 -76 -31 -27 -4 -55 -13 -61 -20 -6 -8 -17 -14 -23 -14 -7
0 -18 -6 -24 -12 -7 -7 -17 -14 -22 -14 -6 -1 -14 -2 -20 -3 -15 -2 -12 -20 5
-37 8 -9 15 -11 15 -5 0 6 9 11 20 11 11 0 20 7 20 15 0 17 9 19 29 6 11 -7
10 -10 -3 -18 -16 -9 -16 -12 0 -46 15 -31 21 -36 43 -31 24 4 24 4 -4 -10
l-30 -14 60 -2 60 -2 -44 -9 c-49 -9 -70 -22 -31 -19 45 4 60 0 60 -15 0 -8 9
-15 20 -15 11 0 20 -4 20 -10 0 -5 9 -10 20 -10 13 0 20 -7 20 -20 0 -18 7
-20 70 -20 45 0 70 -4 70 -11 0 -8 15 -10 48 -5 26 3 60 2 75 -2 24 -6 26 -9
15 -25 -14 -18 -45 -28 -333 -108 -99 -28 -268 -75 -375 -105 -107 -30 -279
-76 -382 -102 -154 -38 -188 -50 -188 -64 0 -12 -8 -18 -22 -19 -21 -1 -20 -2
5 -11 28 -10 32 -20 28 -76 -3 -31 -1 -32 26 -26 15 4 33 11 39 16 6 4 34 9
63 9 28 1 51 5 51 8 0 4 13 11 29 17 21 9 34 8 52 -2 23 -13 63 -13 209 1 63
6 212 42 219 53 3 6 23 13 44 17 20 4 37 10 37 14 0 8 82 31 110 31 12 0 20
-7 20 -17 0 -15 8 -18 45 -16 52 2 65 -9 29 -26 -17 -7 -24 -17 -20 -27 3 -8
2 -13 -3 -10 -4 3 -25 -4 -47 -14 l-38 -20 49 0 c58 0 50 -15 -12 -25 -36 -6
-43 -4 -43 9 0 9 -5 16 -11 16 -7 0 -9 -16 -5 -47 13 -95 18 -386 7 -379 -7 5
-11 -6 -11 -31 l0 -38 -48 0 c-67 0 -111 44 -60 61 18 5 19 8 6 15 -25 14 -66
147 -94 308 -19 106 -2 97 -134 67 -36 -9 -96 -22 -135 -31 -98 -22 -105 -24
-105 -41 0 -18 -7 -19 165 16 81 17 150 30 152 30 6 0 -4 -103 -12 -122 -4
-10 -5 -24 -2 -31 6 -16 -11 -89 -46 -199 l-25 -78 22 0 c11 1 57 7 101 15 44
8 81 15 83 15 1 0 2 -10 2 -23 0 -23 -6 -25 -207 -57 -115 -18 -219 -38 -233
-43 -25 -10 -25 -11 -3 -14 13 -3 89 5 170 16 82 11 203 25 271 32 116 11 123
11 137 -7 12 -15 14 -73 15 -306 0 -157 2 -292 3 -300 2 -7 2 -10 0 -5 -8 14
-23 -4 -23 -28 0 -20 -6 -24 -50 -30 -34 -5 -55 -3 -65 5 -13 10 -15 8 -15
-14 0 -26 -1 -26 -72 -27 -40 -1 -104 -5 -143 -9 -51 -5 -14 -7 132 -8 237 -1
234 1 232 -89 0 -32 3 -101 6 -154 3 -54 2 -106 -4 -120 -8 -20 -10 -14 -10
35 -1 45 -21 133 -38 164 -4 8 -383 -22 -383 -30 0 -4 5 -8 11 -8 5 0 8 -3 6
-7 -3 -5 65 -7 150 -5 86 2 161 1 168 -2 8 -3 2 -59 -22 -207 -19 -112 -35
-204 -36 -206 -2 -1 -77 1 -167 5 -155 7 -165 8 -166 27 -1 11 -2 29 -3 39 0
12 -14 -6 -32 -43 -17 -34 -29 -64 -27 -66 2 -2 92 -7 200 -11 155 -5 195 -10
191 -20 -3 -8 18 -24 61 -43 36 -16 66 -35 66 -41 0 -6 -17 1 -37 15 -59 40
-107 32 -77 -12 15 -24 15 -24 -8 -12 -18 9 -15 3 12 -26 l35 -37 -40 17
c-100 43 -137 54 -206 62 l-74 8 34 18 c19 9 44 17 55 17 12 0 26 4 32 8 7 4
-69 8 -168 10 -125 2 -178 0 -173 -7 3 -6 17 -11 31 -11 13 0 24 -4 24 -10 0
-5 -7 -10 -16 -10 -9 0 -22 -7 -28 -15 -6 -8 -30 -18 -54 -24 -38 -8 -43 -7
-53 13 -17 31 -71 86 -86 86 -7 0 -13 -9 -13 -20 0 -11 -4 -20 -9 -20 -5 0
-11 -13 -14 -30 -7 -31 -37 -43 -37 -15 0 8 -7 15 -15 15 -8 0 -15 5 -15 10 0
6 8 10 18 10 24 0 62 39 41 41 -32 3 -53 -4 -68 -21 -9 -10 -34 -31 -56 -45
l-40 -27 36 6 c20 3 43 8 51 11 18 7 45 -64 40 -105 -3 -22 -8 -26 -37 -26
-19 0 -43 -8 -54 -18 -18 -17 -20 -17 -48 1 -27 17 -28 17 -13 -1 13 -17 13
-18 -5 -15 -27 5 -31 58 -9 101 15 29 15 31 1 20 -9 -8 -24 -37 -33 -65 -11
-33 -19 -45 -22 -34 -4 17 -18 18 -280 12 -285 -6 -348 -10 -357 -25 -3 -5
-68 -9 -145 -9 -77 0 -151 -3 -164 -7 -13 -3 -26 -1 -30 4 -3 5 18 10 47 11
28 1 56 6 61 11 6 6 -10 7 -44 3 -45 -5 -55 -3 -67 13 -13 17 -14 -16 -10
-266 l5 -285 49 -115 50 -115 -29 -12 c-23 -10 -28 -18 -29 -50 -2 -57 -3 -63
-14 -63 -5 -1 -13 9 -16 22 -4 19 -6 16 -12 -17 -11 -63 -8 -153 5 -161 8 -5
10 3 5 28 -3 19 -2 40 2 46 11 18 49 2 55 -24 5 -19 -2 -33 -34 -65 -39 -40
-46 -61 -34 -93 5 -14 11 -12 36 9 35 29 58 32 58 8 0 -10 3 -28 6 -40 6 -21
3 -23 -37 -25 l-44 -1 45 -6 45 -6 26 -150 c15 -82 28 -156 30 -164 3 -10 -16
-17 -70 -27 -72 -12 -96 -11 -87 4 2 4 1 23 -4 42 -8 33 -8 32 -5 -10 2 -25 4
-47 4 -51 1 -3 47 -5 104 -5 84 1 102 -2 102 -14 0 -13 20 -33 35 -35 20 -3
67 -23 140 -58 l85 -42 159 2 c137 2 157 0 145 -12 -11 -11 -59 -14 -217 -16
-112 -2 -205 -6 -208 -10 -6 -11 154 -68 234 -84 31 -6 45 -25 18 -25 -29 0
-66 -43 -87 -101 -12 -33 -26 -62 -31 -65 -15 -10 -52 4 -83 32 -72 63 -113
92 -153 110 -36 15 -43 22 -39 41 5 27 -5 30 -23 7 -10 -11 -29 -15 -69 -13
-31 1 -65 -2 -75 -6 -13 -6 -17 -5 -12 3 3 6 2 13 -4 17 -6 4 -10 58 -10 132
0 70 -2 124 -4 122 -8 -7 -8 -93 -7 -826 l1 -713 2940 0 2941 0 -7 113 c-4 61
-5 571 -3 1132 6 1918 4 4359 -5 5138 l-8 777 -589 0 c-582 0 -589 0 -589 -20z
m310 -410 c0 -5 -7 -10 -15 -10 -8 0 -15 5 -15 10 0 6 7 10 15 10 8 0 15 -4
15 -10z m-2790 -660 c0 -5 -4 -10 -10 -10 -5 0 -10 5 -10 10 0 6 5 10 10 10 6
0 10 -4 10 -10z m-30 -40 c11 -7 4 -10 -25 -9 -31 0 -36 2 -20 9 26 11 28 11
45 0z m-10 -24 c0 -3 -4 -8 -10 -11 -5 -3 -10 -1 -10 4 0 6 5 11 10 11 6 0 10
-2 10 -4z m3447 -118 c-3 -7 -5 -2 -5 12 0 14 2 19 5 13 2 -7 2 -19 0 -25z
m-2949 -43 c-8 -8 -69 -15 -64 -6 3 3 19 8 37 9 18 1 30 0 27 -3z m-85 -22
c-7 -2 -19 -2 -25 0 -7 3 -2 5 12 5 14 0 19 -2 13 -5z m-318 -473 c3 -6 -4
-10 -17 -10 -18 0 -20 2 -8 10 19 12 18 12 25 0z m-108 -2122 c70 -47 93 -74
93 -111 l-1 -32 -14 40 c-8 22 -15 41 -15 41 0 1 -19 12 -42 24 -47 24 -78 49
-78 62 0 13 5 10 57 -24z m-237 -9 l33 -12 -24 -13 c-13 -7 -38 -13 -56 -14
-17 0 -35 -4 -38 -10 -3 -5 -19 -10 -35 -10 -16 0 -31 -3 -34 -8 -2 -4 -26 -5
-53 -3 -45 4 -46 4 -18 12 17 5 36 7 42 4 7 -2 12 0 10 6 -2 12 7 18 63 43 42
19 66 20 110 5z m631 -75 c7 -9 16 -38 19 -65 6 -43 4 -52 -12 -60 -10 -6 -16
-14 -13 -19 3 -5 -1 -23 -10 -40 -17 -32 -6 -40 19 -15 24 25 63 -5 71 -55 10
-60 2 -75 -46 -78 -54 -4 -88 -21 -43 -22 33 0 31 6 46 -115 2 -12 -2 -19 -10
-17 -7 1 -15 -11 -19 -28 -6 -32 -22 -51 -24 -28 -1 21 -38 -94 -39 -119 0
-31 18 -29 26 2 7 28 19 32 28 9 17 -43 8 -51 -59 -58 -36 -4 -70 -4 -75 -1
-6 4 -10 21 -10 40 0 49 -14 50 -44 5 -19 -29 -33 -40 -51 -40 -28 0 -31 7
-11 35 7 11 17 35 21 53 4 18 13 36 21 39 8 3 11 9 8 14 -3 5 3 9 13 10 10 0
13 3 7 5 -18 7 -4 46 13 40 10 -4 13 -1 8 13 -6 19 31 91 47 91 3 0 4 -19 2
-42 -2 -24 -1 -37 2 -30 3 6 14 12 24 12 10 0 20 7 24 15 3 8 12 15 21 15 20
0 12 38 -21 99 -30 54 -31 110 -4 134 23 20 26 37 6 37 -8 0 -18 5 -22 12 -5
8 -1 9 12 5 18 -7 18 -6 2 7 -22 16 -24 73 -4 121 11 26 21 35 39 35 14 0 30
-7 38 -16z m-1003 -10 c17 -3 32 -7 32 -10 0 -3 -9 -33 -20 -68 -16 -49 -18
-69 -10 -90 5 -15 11 -42 11 -59 1 -24 3 -26 6 -9 2 12 8 22 14 22 16 0 22
-52 16 -146 -4 -56 -3 -96 3 -99 14 -9 13 -56 -1 -53 -14 4 -17 -16 -20 -121
-1 -60 2 -86 10 -89 9 -3 12 6 10 29 -4 69 1 125 11 109 14 -22 24 12 17 61
-4 32 0 48 18 75 13 19 26 40 29 47 3 8 9 7 19 -6 12 -14 13 -26 5 -57 -6 -22
-7 -57 -3 -77 7 -35 8 -36 16 -15 11 30 14 28 15 -15 0 -20 6 -39 12 -41 7 -2
12 -12 12 -23 0 -30 20 -22 34 13 9 20 11 41 5 60 -12 43 7 24 26 -27 10 -24
20 -43 24 -41 3 3 11 -7 18 -20 6 -13 8 -24 5 -24 -14 0 -28 16 -40 44 -17 37
-24 29 -12 -14 11 -38 8 -46 -20 -53 -14 -3 -20 -1 -17 6 2 7 12 11 21 11 18
-2 20 5 6 26 -9 13 -12 13 -21 -2 -5 -10 -19 -18 -29 -18 -11 0 -20 -6 -20
-14 0 -14 -41 -26 -88 -26 -13 0 -30 -7 -36 -15 -12 -16 -84 -23 -105 -11 -10
7 -11 4 -3 -10 15 -30 4 -49 -18 -29 -11 10 -20 12 -24 6 -4 -5 -2 -12 4 -16
5 -3 10 -14 10 -23 0 -11 -12 -3 -35 22 -22 24 -32 43 -27 50 7 9 8 63 3 164
-1 19 -35 14 -49 -8 -17 -27 -36 -25 -52 5 -13 23 -10 33 25 106 45 91 85 133
121 126 20 -4 25 2 39 43 9 27 13 60 10 74 -3 14 -7 38 -11 52 -4 20 -8 24
-17 15 -13 -13 -57 -15 -57 -1 0 13 89 72 99 65 15 -8 24 34 11 50 -6 7 -25
17 -42 21 -39 8 -53 -8 -62 -70 -4 -24 -13 -52 -21 -62 -13 -17 -14 -8 -10 76
2 52 4 95 4 96 2 2 120 -7 149 -12z m341 -31 c4 -3 -3 -3 -14 1 -10 4 -40 10
-65 13 -38 6 -41 8 -20 13 23 6 85 -11 99 -27z m-1431 0 c-10 -2 -26 -2 -35 0
-10 3 -2 5 17 5 19 0 27 -2 18 -5z m1416 -23 c6 -6 -3 -6 -25 0 -43 13 -59 12
-36 -1 36 -21 15 -26 -22 -6 -22 12 -35 24 -30 28 13 8 100 -8 113 -21z m-761
-11 c3 -10 -1 -29 -8 -43 -12 -22 -11 -28 0 -40 12 -12 11 -15 -8 -21 -19 -6
-20 -8 -4 -12 12 -3 16 -10 13 -20 -4 -9 1 -22 11 -30 13 -10 15 -16 6 -19
-19 -8 -16 -21 7 -27 11 -3 25 -18 32 -34 7 -15 21 -35 31 -43 15 -12 16 -20
8 -42 -12 -32 -10 -34 51 -43 51 -8 51 -6 31 -79 -8 -30 -167 -100 -228 -100
l-50 -1 3 35 4 35 -24 -35 c-25 -37 -92 -70 -109 -53 -6 6 -2 9 12 9 43 -2 46
41 7 96 -11 15 -9 29 10 80 12 35 22 79 22 99 0 32 3 37 29 42 41 8 61 33 61
74 l0 36 -57 -6 c-39 -3 -50 -2 -35 4 12 4 38 9 57 11 l36 2 -7 43 c-5 35 -3
43 10 43 10 0 13 6 10 15 -11 26 3 40 39 41 26 0 37 -4 40 -17z m-540 4 c-7
-2 -21 -2 -30 0 -10 3 -4 5 12 5 17 0 24 -2 18 -5z m604 1 c-3 -3 -12 -4 -19
-1 -8 3 -5 6 6 6 11 1 17 -2 13 -5z m25 -63 c-5 -3 -11 -14 -15 -23 -9 -24
-37 -23 -37 1 0 30 29 55 47 40 7 -7 10 -15 5 -18z m585 13 c-3 -3 -12 -4 -19
-1 -8 3 -5 6 6 6 11 1 17 -2 13 -5z m-77 -59 c39 -13 41 -14 13 -12 -19 2 -33
-1 -34 -7 0 -6 -3 -5 -6 2 -2 6 -13 12 -24 12 -10 0 -19 5 -19 11 0 6 -9 8
-20 4 -11 -3 -20 -2 -20 4 0 12 51 6 110 -14z m-4 -56 c3 -6 -5 -3 -20 6 -14
10 -26 19 -26 22 0 7 39 -17 46 -28z m-786 -121 c0 -12 -10 -52 -22 -90 -20
-63 -33 -83 -71 -114 -7 -6 -19 -42 -26 -80 -16 -89 -28 -105 -85 -111 -26 -3
-46 -3 -46 1 0 4 9 25 20 46 11 22 27 75 34 118 19 106 65 206 108 232 46 28
88 27 88 -2z m762 -12 c3 -16 1 -23 -7 -19 -7 2 -11 13 -8 24 7 25 10 24 15
-5z m938 9 c-2 -17 -40 -26 -40 -11 0 14 18 26 33 22 5 -1 8 -6 7 -11z m-831
-61 c10 -9 -35 -3 -49 6 -11 8 -7 9 15 4 17 -4 32 -8 34 -10z m-468 -60 c-12
-21 -21 -33 -21 -26 0 18 30 75 36 69 3 -3 -4 -22 -15 -43z m-887 5 c-8 -14
-24 -10 -24 6 0 9 6 12 15 9 8 -4 12 -10 9 -15z m1326 -44 c0 -5 -5 -3 -10 5
-5 8 -10 20 -10 25 0 6 5 3 10 -5 5 -8 10 -19 10 -25z m-3 -72 c-3 -10 -5 -4
-5 12 0 17 2 24 5 18 2 -7 2 -21 0 -30z m-1280 -9 l114 -36 25 -56 c13 -30 23
-56 21 -58 -2 -2 -52 -6 -113 -10 l-109 -7 -37 92 c-21 51 -38 96 -38 102 0
14 14 12 137 -27z m2478 19 c21 -20 15 -64 -19 -148 l-24 -60 -78 4 c-44 1
-81 5 -83 7 -2 2 -4 17 -3 34 1 52 85 154 139 170 42 12 50 12 68 -7z m-1108
-15 c-3 -8 -6 -5 -6 6 -1 11 2 17 5 13 3 -3 4 -12 1 -19z m773 -40 c-1 -16
-49 -72 -56 -65 -10 10 25 77 40 77 9 0 16 -6 16 -12z m-1524 -173 c5 -11 23
-15 68 -16 l61 0 -38 -17 c-23 -10 -35 -22 -32 -30 3 -8 -7 -5 -24 7 -16 12
-44 21 -62 21 -30 0 -31 -1 -14 -13 16 -13 15 -14 -13 -9 -26 3 -33 0 -45 -24
-15 -30 -30 -109 -47 -259 -6 -49 -18 -118 -26 -151 l-16 -61 -51 -7 c-29 -3
-73 -6 -99 -6 -39 0 -48 -3 -48 -17 0 -13 -3 -14 -8 -6 -11 17 -121 10 -134
-9 -7 -10 -11 -10 -15 0 -7 17 -43 15 -43 -2 0 -21 -22 -25 -161 -31 -123 -5
-126 -5 -137 17 -14 29 -109 565 -101 572 4 4 308 22 535 32 61 3 160 9 220
13 185 14 224 13 230 -4z m315 -12 c13 -15 12 -15 -10 -2 -19 11 -25 11 -28 1
-4 -10 -8 -10 -20 -1 -10 9 -17 9 -21 2 -4 -5 -29 -10 -56 -11 -49 0 -52 12
-6 21 63 11 128 7 141 -10z m1513 -175 c-9 -32 -9 -32 -59 -18 -59 16 -72 35
-19 27 21 -4 46 -2 54 3 24 16 32 12 24 -12z m-2834 -95 c0 -23 -7 -31 -40
-45 -35 -15 -40 -15 -40 -1 0 18 49 70 68 72 7 0 12 -10 12 -26z m3134 -59
c25 -9 19 -23 -8 -20 -17 2 -23 -1 -19 -11 4 -9 0 -11 -11 -7 -11 4 -16 0 -17
-12 0 -12 -3 -14 -6 -6 -5 14 22 62 36 62 5 0 16 -3 25 -6z m2423 -226 c-3 -8
-6 -5 -6 6 -1 11 2 17 5 13 3 -3 4 -12 1 -19z m-27 2 c0 -5 -5 -10 -11 -10 -5
0 -7 5 -4 10 3 6 8 10 11 10 2 0 4 -4 4 -10z m-620 -56 c0 -2 -7 -4 -15 -4 -8
0 -15 4 -15 10 0 5 7 7 15 4 8 -4 15 -8 15 -10z m-4260 -15 c0 -5 -4 -9 -10
-9 -5 0 -10 7 -10 16 0 8 5 12 10 9 6 -3 10 -10 10 -16z m-323 -181 c21 -10
43 -9 355 19 l57 5 -8 -28 c-9 -33 -23 -37 -197 -49 l-101 -8 -97 43 c-53 23
-99 46 -101 51 -6 8 48 -11 92 -33z m2433 -271 c0 -8 -9 -22 -20 -32 -22 -20
-27 -7 -10 26 12 22 30 25 30 6z m2340 -217 c41 -12 83 -23 92 -26 16 -5 17
-15 13 -86 -3 -45 -7 -83 -9 -85 -2 -3 -51 8 -108 24 l-103 28 -3 83 c-3 80
-2 82 20 82 13 0 57 -9 98 -20z m-4811 -267 c5 -21 19 -76 31 -123 12 -47 41
-152 66 -233 24 -82 44 -151 44 -153 0 -2 -8 -4 -18 -4 -12 0 -22 12 -29 33
-6 17 -32 92 -57 165 -50 146 -90 298 -81 312 3 5 1 11 -5 15 -18 11 -10 25
15 25 20 0 26 -7 34 -37z m336 -44 c43 -20 133 -114 121 -127 -4 -3 4 -12 16
-20 22 -13 21 -13 -10 -8 -19 3 -46 15 -61 26 -27 19 -131 160 -131 177 0 4 5
0 11 -10 6 -10 30 -27 54 -38z m2000 -219 c3 -5 -3 -10 -15 -10 -12 0 -18 5
-15 10 3 6 10 10 15 10 5 0 12 -4 15 -10z m-1970 -47 c3 -15 22 -49 41 -74 28
-38 40 -47 61 -46 19 1 28 -3 31 -15 3 -15 -3 -18 -32 -18 -19 0 -38 -5 -41
-10 -11 -19 -24 0 -31 46 -3 24 -17 61 -30 80 -24 36 -31 64 -15 64 5 0 12
-12 16 -27z"/>
<path d="M7137 2881 c-17 -33 -13 -41 17 -41 31 0 48 14 40 34 -6 15 -7 15
-21 -1 -13 -17 -14 -17 -8 4 9 34 -12 37 -28 4z"/>
<path d="M6120 2478 c0 -16 5 -28 10 -28 13 0 13 20 0 40 -8 12 -10 9 -10 -12z"/>
<path d="M5700 2898 c0 -14 3 -40 6 -57 6 -28 8 -29 19 -14 9 11 10 26 4 47
-12 42 -29 56 -29 24z"/>
<path d="M5685 2785 c-4 -16 -16 -46 -25 -65 -9 -19 -15 -40 -13 -47 2 -6 -3
-25 -12 -42 -12 -25 -13 -31 -2 -31 7 0 21 24 32 53 10 28 25 57 32 62 10 7
11 21 5 55 -9 45 -9 45 -17 15z"/>
<path d="M5685 7110 c265 -39 302 -44 293 -35 -6 6 -505 75 -533 74 -11 -1 97
-18 240 -39z"/>
<path d="M6070 7055 c41 -7 102 -15 135 -18 l60 -6 -65 14 c-36 7 -96 16 -135
19 l-70 5 75 -14z"/>
<path d="M6288 7023 c12 -2 30 -2 40 0 9 3 -1 5 -23 4 -22 0 -30 -2 -17 -4z"/>
<path d="M6378 7013 c6 -2 18 -2 25 0 6 3 1 5 -13 5 -14 0 -19 -2 -12 -5z"/>
<path d="M1560 7000 c0 -5 5 -10 10 -10 6 0 10 5 10 10 0 6 -4 10 -10 10 -5 0
-10 -4 -10 -10z"/>
<path d="M6438 7003 c6 -2 18 -2 25 0 6 3 1 5 -13 5 -14 0 -19 -2 -12 -5z"/>
<path d="M6760 6940 c0 -5 4 -10 9 -10 6 0 13 5 16 10 3 6 -1 10 -9 10 -9 0
-16 -4 -16 -10z"/>
<path d="M916 6521 c-3 -5 1 -14 9 -21 12 -10 15 -10 15 3 0 19 -16 31 -24 18z"/>
<path d="M1274 6515 c11 -8 23 -15 28 -15 4 0 8 -8 8 -17 0 -16 1 -16 18 0 16
17 16 19 -2 33 -11 8 -31 14 -45 14 -25 -1 -25 -1 -7 -15z"/>
<path d="M10100 6120 c0 -5 5 -10 10 -10 6 0 10 5 10 10 0 6 -4 10 -10 10 -5
0 -10 -4 -10 -10z"/>
<path d="M2725 6095 c34 -16 95 -20 95 -6 0 10 -51 21 -94 20 l-31 -1 30 -13z"/>
<path d="M2284 5966 c-10 -8 -17 -17 -14 -19 5 -5 176 -19 475 -37 94 -5 253
-17 355 -25 356 -28 370 -28 370 -6 0 18 -11 19 -157 26 -87 3 -203 11 -258
16 -192 18 -451 38 -580 44 -71 3 -139 8 -151 10 -11 3 -29 -2 -40 -9z"/>
<path d="M6720 5930 c0 -5 9 -10 20 -10 11 0 20 5 20 10 0 6 -9 10 -20 10 -11
0 -20 -4 -20 -10z"/>
<path d="M10186 5885 c-3 -9 -2 -24 2 -32 8 -13 10 -13 16 2 3 9 2 24 -2 32
-8 13 -10 13 -16 -2z"/>
<path d="M3500 5876 c0 -13 12 -16 56 -16 73 0 70 24 -4 28 -42 2 -52 0 -52
-12z"/>
<path d="M3668 5873 c7 -3 16 -2 19 1 4 3 -2 6 -13 5 -11 0 -14 -3 -6 -6z"/>
<path d="M3673 5853 c9 -2 23 -2 30 0 6 3 -1 5 -18 5 -16 0 -22 -2 -12 -5z"/>
<path d="M3240 5760 c0 -23 12 -25 42 -9 17 9 18 13 7 20 -25 16 -49 10 -49
-11z"/>
<path d="M7934 5545 c0 -115 2 -161 3 -102 2 59 2 154 0 210 -1 56 -3 8 -3
-108z"/>
<path d="M3838 5553 c6 -2 18 -2 25 0 6 3 1 5 -13 5 -14 0 -19 -2 -12 -5z"/>
<path d="M4353 5553 c9 -2 25 -2 35 0 9 3 1 5 -18 5 -19 0 -27 -2 -17 -5z"/>
<path d="M4688 5527 c35 -7 60 -15 56 -19 -4 -5 5 -8 19 -8 15 0 27 5 27 10 0
6 17 10 37 10 75 0 24 8 -87 13 -109 5 -111 5 -52 -6z"/>
<path d="M4943 5513 c15 -2 39 -2 55 0 15 2 2 4 -28 4 -30 0 -43 -2 -27 -4z"/>
<path d="M3510 5418 l1 -43 14 40 c18 49 18 45 0 45 -11 0 -15 -11 -15 -42z"/>
<path d="M6396 5144 c-4 -11 -1 -14 11 -12 9 2 18 9 21 16 6 18 -25 15 -32 -4z"/>
<path d="M7941 4974 c0 -11 3 -14 6 -6 3 7 2 16 -1 19 -3 4 -6 -2 -5 -13z"/>
<path d="M7945 4505 c0 -247 1 -347 2 -222 2 126 2 328 0 450 -1 122 -2 20 -2
-228z"/>
<path d="M6058 4723 c7 -3 16 -2 19 1 4 3 -2 6 -13 5 -11 0 -14 -3 -6 -6z"/>
<path d="M5898 4703 c12 -2 30 -2 40 0 9 3 -1 5 -23 4 -22 0 -30 -2 -17 -4z"/>
<path d="M6275 4428 c-12 -37 -24 -103 -34 -183 -7 -49 -14 -102 -16 -117 -4
-27 -3 -28 45 -28 43 0 50 3 55 23 36 158 42 200 34 230 -4 18 -11 44 -14 60
-4 22 -11 27 -36 27 -16 0 -32 -6 -34 -12z"/>
<path d="M6558 4295 c-4 -39 -16 -94 -28 -124 -11 -29 -19 -55 -18 -56 2 -1
20 0 41 3 31 3 37 8 32 22 -3 10 -1 21 5 25 6 4 8 14 5 24 -4 9 -12 52 -19 96
l-12 80 -6 -70z"/>
<path d="M9680 4354 c0 -13 18 -39 24 -34 2 3 -2 14 -10 24 -8 11 -14 16 -14
10z"/>
<path d="M6091 4335 c-2 -11 -5 -52 -6 -90 -1 -39 -7 -79 -14 -90 -11 -18 -12
-17 -6 9 22 104 17 119 -8 26 -9 -30 -19 -65 -23 -77 -5 -20 -3 -23 19 -23 23
0 27 6 37 54 6 29 9 89 7 132 -1 44 -5 70 -6 59z"/>
<path d="M6420 4220 c0 -11 4 -20 9 -20 5 0 7 9 4 20 -3 11 -7 20 -9 20 -2 0
-4 -9 -4 -20z"/>
<path d="M6408 4173 c-5 -19 -2 -23 18 -23 13 0 24 4 24 10 0 5 -6 7 -14 4 -9
-3 -16 2 -18 13 -3 15 -5 15 -10 -4z"/>
<path d="M6188 4043 c23 -2 61 -2 85 0 23 2 4 4 -43 4 -47 0 -66 -2 -42 -4z"/>
<path d="M7943 3930 c0 -41 2 -58 4 -37 2 20 2 54 0 75 -2 20 -4 3 -4 -38z"/>
<path d="M6311 3754 c0 -11 3 -14 6 -6 3 7 2 16 -1 19 -3 4 -6 -2 -5 -13z"/>
<path d="M7943 3710 c0 -30 2 -43 4 -27 2 15 2 39 0 55 -2 15 -4 2 -4 -28z"/>
<path d="M6301 3694 c0 -11 3 -14 6 -6 3 7 2 16 -1 19 -3 4 -6 -2 -5 -13z"/>
<path d="M9428 3593 c46 -2 118 -2 160 0 42 1 5 3 -83 3 -88 0 -123 -2 -77 -3z"/>
<path d="M9823 3593 c86 -2 228 -2 315 0 86 1 15 3 -158 3 -173 0 -244 -2
-157 -3z"/>
<path d="M6268 3546 c-3 -14 -1 -31 3 -38 6 -8 9 1 9 25 0 42 -6 48 -12 13z"/>
<path d="M4630 3303 c0 -14 69 -17 158 -7 91 12 57 26 -53 22 -75 -2 -105 -7
-105 -15z"/>
<path d="M6488 3283 c7 -3 16 -2 19 1 4 3 -2 6 -13 5 -11 0 -14 -3 -6 -6z"/>
<path d="M2504 3240 c1 -44 2 -45 36 -48 19 -2 31 0 27 4 -4 5 -18 9 -30 9
-18 0 -23 8 -28 40 l-7 40 2 -45z"/>
<path d="M6541 3267 c2 -1 13 -9 24 -17 19 -14 19 -14 6 3 -7 9 -18 17 -24 17
-6 0 -8 -1 -6 -3z"/>
<path d="M3160 2743 c-8 -3 -29 -19 -47 -36 -30 -28 -31 -31 -18 -57 13 -25
33 -40 54 -40 7 0 51 115 51 133 0 8 -18 8 -40 0z"/>
<path d="M3035 2710 c3 -5 15 -10 26 -10 10 0 19 5 19 10 0 6 -12 10 -26 10
-14 0 -23 -4 -19 -10z"/>
<path d="M2826 2701 c-6 -8 153 -3 163 5 2 2 -32 4 -77 4 -44 0 -83 -4 -86 -9z"/>
<path d="M3064 2539 c-3 -6 -1 -15 6 -19 7 -4 10 -15 7 -24 -7 -17 -23 -21
-31 -7 -3 4 -29 4 -58 -1 -29 -5 -68 -10 -86 -10 -25 -1 -34 -6 -38 -25 -4
-12 -10 -23 -14 -23 -17 0 -2 -78 19 -99 13 -13 20 -29 17 -36 -2 -7 6 -21 20
-29 13 -9 24 -23 24 -32 0 -8 8 -18 18 -21 9 -4 34 -24 56 -45 21 -21 42 -38
47 -38 5 0 8 54 8 120 -1 66 -5 120 -9 120 -3 0 -5 14 -2 30 2 17 10 30 18 30
8 0 23 9 35 21 14 14 24 18 31 11 16 -16 -9 -52 -37 -52 -26 0 -34 -15 -12
-23 6 -3 7 -6 1 -6 -6 -1 -9 -14 -6 -32 3 -21 9 -29 19 -25 7 3 16 -1 19 -9 4
-8 15 -15 25 -15 14 0 19 -7 19 -30 0 -20 5 -30 15 -30 21 0 19 -44 -6 -152
l-21 -89 34 -44 c35 -47 67 -70 48 -35 -38 71 -43 101 -20 125 10 11 22 43 26
73 3 29 10 55 14 57 5 3 6 14 3 26 -4 12 0 25 8 30 10 6 10 9 2 9 -8 0 -13 13
-12 33 0 17 3 27 5 21 3 -6 16 -9 31 -6 25 5 26 4 20 -33 -6 -34 -4 -37 15
-32 25 7 58 -8 58 -26 0 -7 9 -23 20 -37 l20 -25 -1 25 c-1 14 -1 42 -1 62 2
32 5 36 24 33 24 -5 108 13 122 26 6 5 33 9 60 9 48 1 50 2 31 16 -21 16 -95
17 -106 1 -10 -14 -29 1 -29 23 0 25 -15 33 -40 20 -13 -7 -20 -7 -20 0 0 5
-6 10 -14 10 -9 0 -12 7 -9 18 2 10 -2 24 -10 30 -17 14 -162 21 -194 9 -19
-7 -23 -5 -23 11 0 10 -11 29 -25 42 -14 13 -25 20 -25 16 0 -5 -18 8 -40 28
-44 40 -46 41 -56 25z m88 -204 c3 -15 1 -25 -6 -25 -6 0 -12 11 -12 25 -2 32
12 32 18 0z m205 -61 c-3 -3 -12 -4 -19 -1 -8 3 -5 6 6 6 11 1 17 -2 13 -5z"/>
<path d="M2062 2495 c3 -18 10 -20 79 -20 43 0 72 3 65 7 -6 4 -21 8 -33 8
-12 0 -24 4 -27 9 -3 5 -24 11 -46 13 -36 3 -40 1 -38 -17z"/>
<path d="M3845 2460 c3 -5 11 -10 16 -10 6 0 7 5 4 10 -3 6 -11 10 -16 10 -6
0 -7 -4 -4 -10z"/>
<path d="M3908 2453 c12 -2 32 -2 45 0 12 2 2 4 -23 4 -25 0 -35 -2 -22 -4z"/>
<path d="M3500 2430 c0 -12 107 -12 135 0 14 6 -5 9 -57 9 -46 1 -78 -3 -78
-9z"/>
<path d="M3840 2433 c1 -18 18 -35 24 -24 4 6 4 16 1 21 -7 12 -25 13 -25 3z"/>
<path d="M3923 2423 c9 -2 25 -2 35 0 9 3 1 5 -18 5 -19 0 -27 -2 -17 -5z"/>
<path d="M4308 2413 c7 -3 16 -2 19 1 4 3 -2 6 -13 5 -11 0 -14 -3 -6 -6z"/>
<path d="M3875 2370 c-3 -5 -1 -10 4 -10 6 0 11 5 11 10 0 6 -2 10 -4 10 -3 0
-8 -4 -11 -10z"/>
<path d="M2830 2334 c0 -8 32 -33 43 -34 5 0 5 4 2 10 -8 13 -45 33 -45 24z"/>
<path d="M4473 2278 c-9 -15 -41 -36 -65 -44 -37 -13 -17 -29 38 -31 31 -2 62
-8 70 -14 20 -16 68 -7 72 14 5 28 -8 93 -17 79 -4 -7 -12 -8 -21 -2 -22 14
-68 12 -77 -2z"/>
<path d="M3658 2273 c7 -3 16 -2 19 1 4 3 -2 6 -13 5 -11 0 -14 -3 -6 -6z"/>
<path d="M3886 2221 c15 -15 68 -26 60 -12 -4 6 -12 9 -17 6 -5 -4 -9 -1 -9 4
0 6 -10 11 -22 11 -14 0 -18 -4 -12 -9z"/>
<path d="M2670 2179 c0 -5 5 -7 10 -4 6 3 10 8 10 11 0 2 -4 4 -10 4 -5 0 -10
-5 -10 -11z"/>
<path d="M2635 2150 c-3 -5 -1 -10 4 -10 6 0 11 5 11 10 0 6 -2 10 -4 10 -3 0
-8 -4 -11 -10z"/>
<path d="M2605 2110 c3 -5 8 -10 11 -10 2 0 4 5 4 10 0 6 -5 10 -11 10 -5 0
-7 -4 -4 -10z"/>
<path d="M4330 2081 c0 -7 34 -11 103 -11 56 0 113 -3 127 -6 18 -4 21 -3 10
4 -23 15 -240 27 -240 13z"/>
<path d="M2995 1960 c-3 -5 -1 -10 4 -10 6 0 11 5 11 10 0 6 -2 10 -4 10 -3 0
-8 -4 -11 -10z"/>
<path d="M2925 1920 c-3 -5 -2 -10 4 -10 5 0 13 5 16 10 3 6 2 10 -4 10 -5 0
-13 -4 -16 -10z"/>
<path d="M10240 1830 c0 -5 7 -10 15 -10 8 0 15 5 15 10 0 6 -7 10 -15 10 -8
0 -15 -4 -15 -10z"/>
<path d="M9705 1800 c-18 -8 -17 -9 7 -9 15 -1 30 4 33 9 7 12 -12 12 -40 0z"/>
<path d="M4631 1754 c0 -11 3 -14 6 -6 3 7 2 16 -1 19 -3 4 -6 -2 -5 -13z"/>
<path d="M4602 1660 c0 -14 2 -19 5 -12 2 6 2 18 0 25 -3 6 -5 1 -5 -13z"/>
<path d="M182 1460 c0 -14 2 -19 5 -12 2 6 2 18 0 25 -3 6 -5 1 -5 -13z"/>
<path d="M10647 907 c-3 -23 -3 -45 1 -49 8 -8 72 21 72 32 0 9 -31 24 -42 22
-5 -1 -8 4 -8 12 0 35 -18 22 -23 -17z"/>
<path d="M10765 810 c-3 -6 -3 -19 0 -30 4 -11 2 -20 -4 -20 -6 0 -11 -9 -11
-20 0 -11 -7 -20 -15 -20 -8 0 -15 -7 -15 -15 0 -8 -9 -15 -20 -15 -13 0 -20
7 -20 19 0 11 -3 26 -6 35 -10 27 -32 -6 -27 -41 3 -17 -2 -64 -12 -104 -9
-41 -16 -105 -15 -144 2 -84 -6 -193 -26 -334 -8 -58 -14 -108 -14 -113 0 -4
50 -8 110 -8 l110 0 0 389 c0 302 -3 390 -12 394 -10 4 -10 6 0 6 17 1 15 31
-2 31 -8 0 -18 -5 -21 -10z"/>
<path d="M0 80 l0 -80 51 0 51 0 -5 33 c-10 54 -25 113 -26 100 -2 -21 -31
-14 -31 7 0 13 -7 20 -20 20 -18 0 -20 -7 -20 -80z"/>
<path d="M113 35 c0 -22 2 -30 4 -17 2 12 2 30 0 40 -3 9 -5 -1 -4 -23z"/>
</g>
</svg>
